<svg width="130" height="66" viewBox="0 0 130 66" fill="none" xmlns="http://www.w3.org/2000/svg">
<path fill-rule="evenodd" clip-rule="evenodd" d="M10.6721 15.1558V15.1558L12.2423 2.55976V2.47635C12.2423 1.62543 11.8298 0.897871 11.088 0.465958C10.458 0.0990787 9.68667 0 8.95254 0C8.17182 0 7.3694 0.135876 6.70807 0.575954C5.9884 1.05487 5.60493 1.7801 5.51047 2.5859L5.50984 2.59125L0 47.4529V47.5351C0 48.1758 0.176864 48.7921 0.560663 49.3293C0.935149 49.8534 1.45188 50.2264 2.0178 50.4905C3.11486 51.0023 4.59364 51.1958 6.30992 51.1958C9.75645 51.1958 12.8202 50.6538 15.4678 49.5267L15.4755 49.5234L15.4831 49.5201C18.0764 48.3781 20.1962 46.8854 21.7902 45.0158L21.7938 45.0115L21.7975 45.0072C24.9326 41.2672 26.534 37.0725 26.534 32.4617C26.534 29.2107 25.6968 26.3841 23.9476 24.0667C22.1705 21.6629 19.6744 20.4568 16.6107 20.4568C14.8816 20.4568 13.6186 20.5885 11.9076 21.3387C11.0088 21.7328 9.8997 22.4956 9.74242 22.6136L10.6721 15.1558ZM7.75608 39.0851L7.75595 39.086L7.01197 45.1583C7.23969 45.1636 7.49074 45.1664 7.76606 45.1664C10.3674 45.1664 12.5092 44.5135 14.2609 43.2653C16.1413 41.9149 17.4237 40.3587 18.1759 38.6068L18.1799 38.5976L18.184 38.5884C19.0087 36.7443 19.4151 34.8671 19.4151 32.9462C19.4151 31.0049 18.9637 29.4966 18.1488 28.3345L18.1379 28.3189L18.1273 28.303C17.386 27.1793 16.4816 26.7015 15.3164 26.7015C13.4248 26.7015 11.8767 27.5477 10.6063 29.4843C9.28873 31.4931 8.30328 34.6457 7.75608 39.0851Z" fill="white"/>
<path fill-rule="evenodd" clip-rule="evenodd" d="M122.883 41.9682L123.446 43.2721C125 41.9153 126.283 40.3251 127.29 38.5084C129.1 35.3918 130.001 31.9674 130.001 28.2626C130.001 24.8493 129.115 22.0332 127.13 20.0486C125.257 18.1395 122.932 17.1729 120.239 17.1729C117.589 17.1729 115.248 18.0114 113.228 19.6146V19.5954C113.228 18.9399 113.008 18.2347 112.385 17.7371C111.82 17.2854 111.125 17.1729 110.531 17.1729C109.602 17.1729 108.707 17.2566 108.032 17.5625L108.01 17.573L107.987 17.5843C107.13 18.0118 106.724 18.8146 106.567 19.6006L106.557 19.65L101.147 63.4949V63.5774C101.147 64.271 101.404 64.9832 102.058 65.4667C102.635 65.894 103.34 66.0001 103.952 66.0001C104.851 66.0001 105.724 65.8811 106.435 65.5113C107.223 65.1015 107.763 64.4018 107.878 63.4801L109.987 47.8915C112.629 47.7994 115.059 47.3934 117.267 46.6585L117.276 46.6556L117.285 46.6525C119.773 45.7874 121.843 44.6717 123.446 43.2723L122.882 41.9684L122.883 41.9682ZM120.541 36.5467C121.944 34.436 122.936 31.6412 122.936 28.8009C122.936 27.1146 122.54 25.8004 121.829 24.7777L121.828 24.7773C121.208 23.8862 120.332 23.4176 118.999 23.4176C117.636 23.4176 116.459 23.8329 115.44 24.7355C114.994 25.1299 114.58 25.6172 114.193 26.2036C112.87 28.2073 111.897 31.3543 111.386 35.7917L110.683 41.8817C114.164 41.8461 117.025 40.581 119.357 38.0622C119.773 37.6125 120.171 37.1035 120.541 36.547V36.5467Z" fill="white"/>
<path fill-rule="evenodd" clip-rule="evenodd" d="M43.6331 41.31L43.618 41.3166C42.7561 41.6966 41.877 41.8825 40.9702 41.8825C38.899 41.8825 37.4992 41.2553 36.5538 40.1534C35.749 39.1865 35.2149 37.8464 35.0434 36.0406C37.0822 35.9586 38.997 35.6954 40.7826 35.2451C42.854 34.7228 44.7517 33.9487 46.4675 32.9136L46.4711 32.9114C50.0762 30.721 52.08 27.7481 52.08 24.0097C52.08 21.8902 51.298 20.1201 49.6581 18.8992C48.1126 17.7131 46.187 17.1729 43.9904 17.1729C40.3009 17.1729 36.8046 18.6221 33.5251 21.3628L33.5201 21.367L33.5153 21.3711C31.86 22.7816 30.5286 24.6612 29.4938 26.9566C28.4366 29.3018 27.9189 31.8795 27.9189 34.6688C27.9189 38.6961 28.9496 42.0097 31.1927 44.4146L31.2008 44.4234L31.2092 44.432C33.5133 46.8156 36.7689 47.9118 40.7545 47.9118C42.7596 47.9118 44.7793 47.3802 46.8 46.3723C47.7888 45.8879 48.6112 45.4031 49.2065 44.9099C49.7342 44.4726 50.4082 43.7646 50.4082 42.7977C50.4082 42.0103 50.1957 41.2563 49.8181 40.5494L49.818 40.5493C49.4353 39.833 48.7359 39.0293 47.6037 39.0293H47.1473L45.8486 40.0206L45.8298 40.0361C45.3426 40.4366 44.6313 40.8633 43.6545 41.3004C43.6474 41.3036 43.6402 41.3068 43.6331 41.31ZM38.2181 29.7538C39.6398 29.4447 40.9638 28.9767 42.1943 28.3542L42.1976 28.3525L42.2009 28.3509C44.6497 27.1286 45.4465 25.8226 45.4465 24.5481C45.4465 23.961 45.2746 23.7034 45.0816 23.5469L45.0457 23.5177L45.012 23.4863C44.7743 23.2649 44.4105 23.0945 43.7746 23.0945C42.2686 23.0945 40.5564 23.7889 38.6147 25.4597L38.6096 25.4641L38.6045 25.4685C38.0009 25.9774 37.4707 26.546 37.0149 27.1776C36.3907 28.0428 35.9062 29.0262 35.5646 30.1366C36.4845 30.0663 37.3687 29.9384 38.2181 29.7538Z" fill="white"/>
<path fill-rule="evenodd" clip-rule="evenodd" d="M58.3845 21.3628C61.664 18.6221 65.1603 17.1729 68.8495 17.1729C71.0465 17.1729 72.9718 17.713 74.5169 18.8992C76.1578 20.1202 76.9391 21.8904 76.9391 24.0097C76.9391 27.7481 74.9356 30.7209 71.3303 32.9114L71.3283 32.9125L71.3269 32.9135C68.1322 34.841 64.3065 35.8635 59.9028 36.0406C60.0742 37.8464 60.6084 39.1865 61.4132 40.1534C62.3586 41.2553 63.7583 41.8825 65.8296 41.8825C66.7495 41.8825 67.6401 41.6914 68.5138 41.3005V41.3003C69.4913 40.8632 70.2018 40.4366 70.6885 40.0364L70.7074 40.0208L72.0065 39.0293H72.4629C73.5947 39.0293 74.2938 39.8317 74.6767 40.549L74.6774 40.5492C75.0556 41.2566 75.2673 42.0108 75.2673 42.7977C75.2673 43.7646 74.5938 44.4724 74.066 44.9098C73.4707 45.4031 72.6482 45.8879 71.6593 46.3723C69.6389 47.3802 67.6192 47.9118 65.6139 47.9118C61.6283 47.9118 58.3727 46.8156 56.0686 44.432L56.0602 44.4234L56.0521 44.4146C53.8089 42.0097 52.7783 38.6961 52.7783 34.6688C52.7783 31.8795 53.296 29.3018 54.3532 26.9566C55.388 24.6612 56.7194 22.7816 58.3746 21.3711L58.3795 21.367L58.3845 21.3628ZM63.474 25.4597C65.4158 23.7889 67.1277 23.0945 68.6338 23.0945C69.2701 23.0945 69.6335 23.2649 69.8708 23.4863L69.9052 23.518L69.9409 23.5472C70.1337 23.7034 70.3056 23.9605 70.3056 24.5481C70.3056 25.8226 69.5088 27.1287 67.06 28.3508L67.0567 28.3525L67.0534 28.3542C65.088 29.3487 62.8838 29.9487 60.424 30.1366C61.0149 28.2156 62.0337 26.6746 63.4639 25.4685L63.469 25.4641L63.474 25.4597Z" fill="white"/>
<path fill-rule="evenodd" clip-rule="evenodd" d="M93.7081 17.1729C90.0193 17.1729 86.5225 18.6221 83.2428 21.3627L83.2381 21.367L83.2327 21.3713C81.5784 22.7816 80.2463 24.661 79.2115 26.9566C78.1545 29.3018 77.6367 31.8795 77.6367 34.6688C77.6367 38.6961 78.6675 42.0097 80.9103 44.4146L80.9184 44.4234L80.9272 44.4321C83.2314 46.8156 86.4875 47.9118 90.4723 47.9118C92.4778 47.9118 94.4976 47.3802 96.5179 46.3723C97.5069 45.8879 98.3294 45.4031 98.9246 44.9098C99.4525 44.4724 100.126 43.7646 100.126 42.7977C100.126 42.0108 99.9142 41.2566 99.5361 40.5492L99.5354 40.549C99.1525 39.8317 98.4534 39.0293 97.3215 39.0293H96.8651L95.5661 40.0208L95.5472 40.0364C95.0605 40.4366 94.3499 40.8632 93.3724 41.3003C92.4994 41.6912 91.6082 41.8825 90.688 41.8825C88.6171 41.8825 87.2176 41.2554 86.2717 40.1534C85.4668 39.1864 84.9329 37.8462 84.761 36.0406C89.1651 35.8635 92.9909 34.841 96.1856 32.9135L96.189 32.9114C99.7942 30.7209 101.798 27.7481 101.798 24.0097C101.798 21.8904 101.016 20.1202 99.3756 18.8992C97.8305 17.713 95.9052 17.1729 93.7081 17.1729ZM93.4924 23.0945C91.9864 23.0945 90.2748 23.7889 88.3326 25.4599L88.3272 25.4642L88.3225 25.4684C86.8926 26.6745 85.8733 28.2155 85.2828 30.1366C87.7427 29.9487 89.9465 29.3486 91.9122 28.3542L91.9156 28.3525L91.919 28.3508C94.3674 27.1287 95.1643 25.8226 95.1643 24.5481C95.1643 23.9605 94.9924 23.7034 94.7996 23.5472L94.7638 23.518L94.7295 23.4863C94.4922 23.2649 94.1288 23.0945 93.4924 23.0945Z" fill="white"/>
</svg>
