<svg width="269" height="137" viewBox="0 0 269 137" fill="none" xmlns="http://www.w3.org/2000/svg">
<path fill-rule="evenodd" clip-rule="evenodd" d="M22.0829 31.9998V31.9996L25.332 6.04419V5.87231C25.332 4.11891 24.4783 2.61969 22.9434 1.72969C21.6397 0.973693 20.0438 0.769531 18.5247 0.769531C16.9092 0.769531 15.2488 1.04952 13.8803 1.95635C12.3912 2.9432 11.5977 4.43761 11.4022 6.09805L11.4009 6.10907L-0.000244141 98.5512V98.7206C-0.000244141 100.041 0.365729 101.311 1.1599 102.418C1.9348 103.498 3.00404 104.266 4.17506 104.811C6.44513 105.865 9.50508 106.264 13.0565 106.264C20.1881 106.264 26.5278 105.147 32.0063 102.824L32.0222 102.818L32.0379 102.811C37.4042 100.458 41.7904 97.382 45.0888 93.5294L45.0963 93.5205L45.1039 93.5116C51.5911 85.8049 54.9049 77.1613 54.9049 67.6602C54.9049 60.9613 53.1724 55.1367 49.5531 50.3614C45.8758 45.4083 40.7108 42.9229 34.3713 42.9229C30.7934 42.9229 28.1799 43.1944 24.6394 44.7402C22.7795 45.5522 20.4846 47.1241 20.1591 47.3672L22.0829 31.9998ZM16.0489 81.3085L16.0486 81.3103L14.5092 93.8231C14.9804 93.8339 15.4999 93.8397 16.0696 93.8397C21.4524 93.8397 25.8843 92.4943 29.5089 89.9222C33.3998 87.1397 36.0536 83.933 37.6099 80.323L37.6182 80.3039L37.6267 80.285C39.3332 76.485 40.1743 72.6169 40.1743 68.6586C40.1743 64.6585 39.2401 61.5505 37.5538 59.1558L37.5313 59.1236L37.5095 59.0909C35.9755 56.7754 34.104 55.7908 31.693 55.7908C27.7788 55.7908 24.5754 57.5346 21.9468 61.5251C19.2203 65.6643 17.1812 72.1607 16.0489 81.3085Z" fill="black"/>
<path fill-rule="evenodd" clip-rule="evenodd" d="M254.273 87.2492L255.437 89.9359C258.653 87.1401 261.307 83.8635 263.393 80.1199C267.137 73.6979 269 66.6415 269 59.0073C269 51.9739 267.169 46.1711 263.061 42.0816C259.184 38.1476 254.374 36.1558 248.802 36.1558C243.318 36.1558 238.473 37.8836 234.294 41.1873V41.1476C234.294 39.7969 233.839 38.3437 232.55 37.3184C231.38 36.3877 229.942 36.1558 228.714 36.1558C226.792 36.1558 224.94 36.3284 223.543 36.9586L223.496 36.9802L223.448 37.0035C221.677 37.8846 220.836 39.5388 220.511 41.1584L220.49 41.2602L209.297 131.607V131.777C209.297 133.206 209.827 134.674 211.18 135.67C212.375 136.551 213.833 136.769 215.1 136.769C216.96 136.769 218.767 136.524 220.239 135.762C221.869 134.918 222.987 133.476 223.224 131.577L227.587 99.4548C233.054 99.265 238.083 98.4283 242.653 96.914L242.671 96.908L242.689 96.9018C247.836 95.119 252.122 92.8201 255.437 89.9365L254.271 87.2496L254.273 87.2492ZM249.426 76.0776C252.329 71.7283 254.381 65.9694 254.381 60.1166C254.381 56.6417 253.563 53.9337 252.091 51.8263L252.089 51.8254C250.807 49.9894 248.994 49.0236 246.235 49.0236C243.416 49.0236 240.98 49.8796 238.871 51.7393C237.949 52.552 237.091 53.5562 236.29 54.7645C233.553 58.8933 231.54 65.3782 230.482 74.5218L229.028 87.071C236.23 86.9976 242.15 84.3907 246.976 79.2004C247.836 78.2737 248.661 77.2249 249.426 76.0782V76.0776Z" fill="black"/>
<path fill-rule="evenodd" clip-rule="evenodd" d="M90.2865 85.8928L90.2554 85.9066C88.4718 86.6896 86.6528 87.0726 84.7765 87.0726C80.4905 87.0726 77.5941 85.7801 75.6379 83.5096C73.9726 81.5172 72.8672 78.7559 72.5125 75.0347C76.7311 74.8657 80.6933 74.3234 84.3882 73.3956C88.6745 72.3193 92.6013 70.7241 96.1516 68.5912L96.1591 68.5867C103.619 64.0731 107.765 57.9472 107.765 50.2439C107.765 45.8764 106.147 42.2289 102.754 39.7131C99.5558 37.2689 95.5711 36.1558 91.0258 36.1558C83.3914 36.1558 76.1568 39.1421 69.3708 44.7896L69.3605 44.7982L69.3504 44.8068C65.9253 47.7131 63.1702 51.5862 61.029 56.3163C58.8414 61.1487 57.7703 66.4603 57.7703 72.208C57.7703 80.5066 59.9029 87.3346 64.5444 92.2903L64.5613 92.3083L64.5786 92.3261C69.3464 97.2378 76.083 99.4967 84.3301 99.4967C88.4791 99.4967 92.6583 98.4011 96.8396 96.3244C98.8857 95.3262 100.587 94.3272 101.819 93.3108C102.911 92.4097 104.306 90.951 104.306 88.9584C104.306 87.336 103.866 85.7822 103.085 84.3257L103.085 84.3254C102.293 82.8495 100.845 81.1933 98.5027 81.1933H97.5582L94.8709 83.2361L94.8319 83.268C93.8238 84.0933 92.3521 84.9725 90.3309 85.8731C90.3161 85.8798 90.3013 85.8863 90.2865 85.8928ZM79.0816 62.0801C82.0234 61.4432 84.7631 60.4789 87.3094 59.196L87.3161 59.1926L87.3229 59.1892C92.3901 56.6707 94.0389 53.9794 94.0389 51.3532C94.0389 50.1435 93.6832 49.6127 93.2838 49.2901L93.2096 49.2301L93.1397 49.1653C92.648 48.7091 91.8952 48.358 90.5794 48.358C87.4631 48.358 83.9201 49.7889 79.9022 53.2318L79.8918 53.2408L79.8812 53.2498C78.6323 54.2985 77.5351 55.4702 76.592 56.7717C75.3003 58.5544 74.2977 60.5809 73.5909 62.8689C75.4945 62.7242 77.3241 62.4606 79.0816 62.0801Z" fill="white"/>
<path fill-rule="evenodd" clip-rule="evenodd" d="M120.809 44.7896C127.595 39.1421 134.83 36.1558 142.464 36.1558C147.01 36.1558 150.994 37.2688 154.191 39.7131C157.586 42.2292 159.203 45.8768 159.203 50.2439C159.203 57.9471 155.057 64.0729 147.597 68.5868L147.593 68.5889L147.59 68.5911C140.98 72.5628 133.063 74.6698 123.951 75.0347C124.306 78.7559 125.411 81.5172 127.076 83.5096C129.033 85.7801 131.929 87.0726 136.215 87.0726C138.118 87.0726 139.961 86.6788 141.769 85.8734V85.873C143.792 84.9723 145.262 84.0931 146.269 83.2685L146.308 83.2363L148.996 81.1933H149.941C152.283 81.1933 153.729 82.8467 154.522 84.3247L154.523 84.3251C155.306 85.7829 155.744 87.337 155.744 88.9584C155.744 90.9508 154.35 92.4094 153.258 93.3107C152.026 94.3272 150.324 95.3262 148.278 96.3244C144.097 98.4011 139.918 99.4967 135.769 99.4967C127.521 99.4967 120.785 97.2378 116.017 92.3261L116 92.3083L115.983 92.2903C111.341 87.3346 109.209 80.5066 109.209 72.208C109.209 66.4603 110.28 61.1487 112.467 56.3163C114.609 51.5862 117.364 47.7131 120.789 44.8068L120.799 44.7982L120.809 44.7896ZM131.341 53.2318C135.359 49.7888 138.901 48.358 142.017 48.358C143.334 48.358 144.086 48.7091 144.577 49.1653L144.648 49.2305L144.722 49.2908C145.121 49.6127 145.477 50.1424 145.477 51.3532C145.477 53.9796 143.828 56.6709 138.761 59.1891L138.754 59.1926L138.747 59.196C134.68 61.2453 130.119 62.4818 125.029 62.8689C126.252 58.9105 128.36 55.735 131.32 53.2498L131.33 53.2408L131.341 53.2318Z" fill="white"/>
<path fill-rule="evenodd" clip-rule="evenodd" d="M193.904 36.1558C186.271 36.1558 179.035 39.1421 172.249 44.7894L172.239 44.7982L172.228 44.807C168.804 47.7131 166.048 51.586 163.907 56.3163C161.72 61.1487 160.648 66.4603 160.648 72.208C160.648 80.5066 162.781 87.3346 167.422 92.2903L167.439 92.3085L167.457 92.3263C172.225 97.2378 178.962 99.4967 187.208 99.4967C191.358 99.4967 195.537 98.4011 199.718 96.3244C201.764 95.3262 203.466 94.3272 204.698 93.3107C205.79 92.4094 207.184 90.9508 207.184 88.9584C207.184 87.337 206.746 85.7829 205.963 84.3251L205.962 84.3247C205.169 82.8467 203.723 81.1933 201.381 81.1933H200.436L197.748 83.2363L197.709 83.2685C196.702 84.0931 195.232 84.9723 193.209 85.873V85.8734C191.403 86.6788 189.558 87.0726 187.654 87.0726C183.369 87.0726 180.473 85.7804 178.516 83.5096C176.851 81.5171 175.746 78.7555 175.39 75.0347C184.503 74.6698 192.42 72.5628 199.03 68.5911L199.037 68.5868C206.497 64.0729 210.643 57.9471 210.643 50.2439C210.643 45.8768 209.026 42.2292 205.631 39.7131C202.434 37.2688 198.45 36.1558 193.904 36.1558ZM193.457 48.358C190.341 48.358 186.799 49.7888 182.78 53.232L182.769 53.2409L182.76 53.2496C179.801 55.7349 177.692 58.9104 176.47 62.8689C181.56 62.4818 186.12 61.2452 190.188 59.196L190.195 59.1926L190.202 59.1891C195.268 56.6709 196.917 53.9796 196.917 51.3532C196.917 50.1424 196.561 49.6127 196.162 49.2908L196.088 49.2305L196.017 49.1653C195.526 48.7091 194.774 48.358 193.457 48.358Z" fill="white"/>
</svg>
