<svg width="397" height="200" viewBox="0 0 397 200" fill="none" xmlns="http://www.w3.org/2000/svg">
<path fill-rule="evenodd" clip-rule="evenodd" d="M32.591 45.9269L32.591 45.9266L37.3862 7.75684V7.50408C37.3862 4.92555 36.1264 2.72081 33.8612 1.41199C31.937 0.300239 29.5815 0 27.3397 0C24.9555 0 22.505 0.411746 20.4854 1.74532C18.2877 3.19657 17.1166 5.39422 16.8281 7.83606L16.8262 7.85226L0 143.797V144.046C0 145.987 0.540115 147.855 1.71218 149.483C2.85581 151.071 4.43384 152.201 6.16205 153.001C9.51231 154.552 14.0283 155.139 19.2695 155.139C29.7947 155.139 39.1508 153.496 47.2363 150.081L47.2597 150.071L47.283 150.061C55.2027 146.6 61.6761 142.077 66.544 136.411L66.5551 136.398L66.5661 136.385C76.1402 125.052 81.0309 112.341 81.0309 98.3686C81.0309 88.5173 78.4739 79.9516 73.1325 72.9292C67.7055 65.6451 60.0828 61.9901 50.7267 61.9901C45.4462 61.9901 41.5893 62.3895 36.364 64.6627C33.6192 65.8568 30.2322 68.1685 29.7519 68.5258L32.591 45.9269ZM23.6859 118.44L23.6856 118.442L21.4135 136.843C22.1089 136.859 22.8756 136.868 23.7164 136.868C31.6605 136.868 38.2013 134.889 43.5505 131.107C49.2929 127.015 53.2095 122.299 55.5064 116.99L55.5186 116.962L55.5311 116.934C58.0498 111.346 59.2909 105.658 59.2909 99.8368C59.2909 93.9544 57.9123 89.3838 55.4236 85.8622L55.3902 85.8149L55.3581 85.7666C53.0942 82.3616 50.3322 80.9134 46.7739 80.9134C40.9972 80.9134 36.2695 83.478 32.3902 89.3465C28.3664 95.4335 25.3569 104.987 23.6859 118.44Z" fill="black"/>
<path fill-rule="evenodd" clip-rule="evenodd" d="M375.264 127.176L376.983 131.127C381.729 127.016 385.646 122.197 388.724 116.692C394.249 107.248 397 96.8707 397 85.644C397 75.3007 394.296 66.7671 388.234 60.7533C382.513 54.9681 375.415 52.0388 367.19 52.0388C359.098 52.0388 351.947 54.5797 345.779 59.4379V59.3797C345.779 57.3933 345.108 55.2562 343.206 53.7485C341.479 52.3798 339.357 52.0388 337.544 52.0388C334.708 52.0388 331.973 52.2925 329.913 53.2195L329.842 53.2512L329.773 53.2855C327.159 54.5812 325.918 57.0138 325.437 59.3955L325.406 59.5453L308.887 192.408V192.659C308.887 194.76 309.669 196.919 311.665 198.383C313.431 199.678 315.582 200 317.451 200C320.198 200 322.864 199.639 325.036 198.519C327.443 197.277 329.091 195.157 329.441 192.364L335.881 145.126C343.949 144.846 351.371 143.616 358.116 141.389L358.142 141.38L358.169 141.371C365.765 138.749 372.09 135.369 376.983 131.128L375.263 127.177L375.264 127.176ZM368.113 110.747C372.396 104.351 375.425 95.8822 375.425 87.2753C375.425 82.1652 374.217 78.1826 372.043 75.0836L372.042 75.0824C370.15 72.3823 367.474 70.9621 363.402 70.9621C359.242 70.9621 355.646 72.2208 352.534 74.9557L352.533 74.9558C351.174 76.1508 349.906 77.6277 348.724 79.4046C344.686 85.4762 341.715 95.0129 340.153 108.459L338.008 126.914C348.637 126.806 357.375 122.972 364.495 115.34C365.766 113.977 366.983 112.435 368.112 110.748L368.113 110.747Z" fill="black"/>
<path fill-rule="evenodd" clip-rule="evenodd" d="M133.249 125.181L133.203 125.202C130.571 126.353 127.886 126.916 125.117 126.916C118.792 126.916 114.517 125.016 111.63 121.677C109.172 118.747 107.541 114.686 107.017 109.214C113.243 108.965 119.091 108.168 124.544 106.803C130.87 105.22 136.665 102.875 141.905 99.7379L141.916 99.7313C152.925 93.0935 159.045 84.085 159.045 72.7565C159.045 66.3338 156.656 60.9698 151.648 57.2702C146.929 53.6758 141.048 52.0388 134.34 52.0388C123.073 52.0388 112.396 56.4304 102.381 64.7355L102.366 64.7481L102.351 64.7608C97.2957 69.0349 93.2299 74.7307 90.0698 81.6865C86.8412 88.793 85.2603 96.6042 85.2603 105.057C85.2603 117.261 88.4077 127.302 95.2578 134.589L95.2829 134.616L95.3084 134.642C102.345 141.865 112.287 145.187 124.458 145.187C130.582 145.187 136.749 143.576 142.92 140.522C145.94 139.054 148.451 137.585 150.269 136.09C151.881 134.765 153.939 132.62 153.939 129.69C153.939 127.304 153.29 125.019 152.137 122.877L152.137 122.876C150.968 120.706 148.832 118.27 145.375 118.27H143.981L140.015 121.274L139.957 121.321C138.469 122.535 136.297 123.828 133.314 125.153C133.293 125.162 133.271 125.172 133.249 125.181ZM116.712 90.1627C121.054 89.2262 125.097 87.808 128.855 85.9214L128.865 85.9164L128.875 85.9114C136.354 82.2078 138.787 78.25 138.787 74.3879C138.787 72.6089 138.262 71.8283 137.672 71.3539L137.563 71.2658L137.46 71.1704C136.734 70.4997 135.623 69.9833 133.681 69.9833C129.082 69.9833 123.853 72.0874 117.924 77.1506L117.908 77.1638L117.892 77.1769C116.049 78.7192 114.43 80.4422 113.038 82.3563C111.132 84.978 109.652 87.958 108.609 91.3227C111.418 91.1098 114.119 90.7222 116.712 90.1627Z" fill="#3BA4F3"/>
<path fill-rule="evenodd" clip-rule="evenodd" d="M178.296 64.7355C188.311 56.4304 198.988 52.0388 210.254 52.0388C216.963 52.0388 222.844 53.6755 227.563 57.2703C232.572 60.9701 234.959 66.3344 234.959 72.7565C234.959 84.0849 228.841 93.0935 217.83 99.7313L217.824 99.7346L217.819 99.7378C208.064 105.579 196.381 108.677 182.932 109.214C183.456 114.686 185.087 118.747 187.545 121.677C190.432 125.016 194.707 126.916 201.032 126.916C203.841 126.916 206.562 126.337 209.228 125.153L209.229 125.152C212.213 123.828 214.385 122.535 215.87 121.322L215.928 121.275L219.895 118.27H221.289C224.745 118.27 226.881 120.702 228.05 122.875L228.051 122.876C229.206 125.02 229.853 127.305 229.853 129.69C229.853 132.62 227.796 134.765 226.184 136.09C224.366 137.585 221.855 139.054 218.834 140.522C212.664 143.576 206.497 145.187 200.373 145.187C188.202 145.187 178.26 141.865 171.223 134.642L171.198 134.616L171.173 134.589C164.323 127.302 161.175 117.261 161.175 105.057C161.175 96.6042 162.756 88.793 165.985 81.6865C169.145 74.7307 173.211 69.0349 178.266 64.7608L178.281 64.7481L178.296 64.7355ZM193.839 77.1506C199.768 72.0873 204.996 69.9833 209.595 69.9833C211.538 69.9833 212.648 70.4995 213.374 71.1704L213.478 71.2663L213.588 71.3549C214.176 71.8283 214.701 72.6072 214.701 74.3879C214.701 78.2502 212.268 82.2079 204.79 85.9113L204.779 85.9164L204.769 85.9215C198.767 88.9351 192.036 90.7534 184.524 91.3227C186.329 85.5015 189.44 80.8317 193.807 77.1769L193.823 77.1638L193.839 77.1506Z" fill="#3BA4F3"/>
<path fill-rule="evenodd" clip-rule="evenodd" d="M286.169 52.0388C274.904 52.0388 264.226 56.4304 254.21 64.7354L254.195 64.7482L254.179 64.7612C249.127 69.0349 245.059 74.7302 241.899 81.6865C238.67 88.793 237.09 96.6042 237.09 105.057C237.09 117.261 240.237 127.302 247.087 134.589L247.112 134.616L247.138 134.643C254.175 141.865 264.117 145.187 276.287 145.187C282.412 145.187 288.579 143.576 294.75 140.522C297.77 139.054 300.281 137.585 302.099 136.09C303.711 134.765 305.768 132.62 305.768 129.69C305.768 127.305 305.121 125.02 303.966 122.876L303.966 122.875C302.796 120.702 300.66 118.27 297.204 118.27H295.81L291.843 121.275L291.785 121.322C290.3 122.535 288.128 123.828 285.144 125.152L285.143 125.153C282.477 126.337 279.756 126.916 276.946 126.916C270.621 126.916 266.347 125.016 263.459 121.677C261.002 118.746 259.37 114.685 258.847 109.214C272.296 108.677 283.979 105.579 293.734 99.7378L293.745 99.7313C304.756 93.0935 310.874 84.0849 310.874 72.7565C310.874 66.3344 308.487 60.9701 303.478 57.2703C298.759 53.6755 292.878 52.0388 286.169 52.0388ZM285.51 69.9833C280.911 69.9833 275.684 72.0872 269.752 77.1509L269.737 77.1639L269.722 77.1768C265.355 80.8316 262.244 85.5014 260.439 91.3227C267.951 90.7534 274.682 88.935 280.684 85.9215L280.694 85.9164L280.705 85.9113C288.183 82.2079 290.616 78.2502 290.616 74.3879C290.616 72.6072 290.091 71.8283 289.503 71.3549L289.393 71.2663L289.289 71.1704C288.563 70.4995 287.453 69.9833 285.51 69.9833Z" fill="#3BA4F3"/>
</svg>
