<svg width="386" height="117" viewBox="0 0 386 117" fill="none" xmlns="http://www.w3.org/2000/svg">
<path d="M49.44 24.18C58.7133 24.18 65.82 27.7333 70.76 34.84C75.7867 41.86 77.52 50.0933 75.96 59.54C74.4867 68.7267 70.4567 76.57 63.87 83.07C57.2833 89.57 49.18 92.82 39.56 92.82C30.2 92.82 23.44 89.2667 19.28 82.16L17.72 91H0.95L16.94 -6.19888e-06H33.71L27.86 33.02C33.7533 27.1267 40.9467 24.18 49.44 24.18ZM59.19 58.37C60.1433 52.91 59.2333 48.5333 56.46 45.24C53.7733 41.86 49.83 40.17 44.63 40.17C39.43 40.17 34.8367 41.86 30.85 45.24C26.8633 48.62 24.3933 53.04 23.44 58.5C22.4867 63.96 23.44 68.38 26.3 71.76C29.16 75.14 33.19 76.83 38.39 76.83C43.59 76.83 48.14 75.14 52.04 71.76C55.94 68.2933 58.3233 63.83 59.19 58.37ZM356.797 24.18C365.983 24.18 373.047 27.7767 377.987 34.97C383.013 42.0767 384.747 50.3533 383.187 59.8C381.8 68.9867 377.813 76.7867 371.227 83.2C364.64 89.6133 356.667 92.82 347.307 92.82C337.773 92.82 330.84 89.18 326.507 81.9L320.397 117H303.627L319.617 26H336.387L335.217 32.76C340.937 27.04 348.13 24.18 356.797 24.18ZM366.417 58.63C367.37 53.17 366.46 48.75 363.687 45.37C361 41.9033 357.057 40.17 351.857 40.17C346.917 40.17 342.497 41.6867 338.597 44.72C334.783 47.7533 332.227 51.74 330.927 56.68L330.407 59.93C329.8 65.13 330.97 69.2467 333.917 72.28C336.863 75.3133 340.807 76.83 345.747 76.83C350.773 76.83 355.237 75.2267 359.137 72.02C363.037 68.7267 365.463 64.2633 366.417 58.63Z" fill="black"/>
<path d="M98.187 33.67C105.554 27.3433 114.047 24.18 123.667 24.18C133.287 24.18 140.87 27.5167 146.417 34.19C151.964 40.7767 153.827 48.88 152.007 58.5C151.834 60.4067 151.227 62.7033 150.187 65.39H101.047C101.394 69.55 102.997 72.6267 105.857 74.62C108.717 76.6133 112.314 77.61 116.647 77.61C123.147 77.61 128.477 75.4 132.637 70.98L144.467 80.47C137.187 88.7033 127.48 92.82 115.347 92.82C104.6 92.82 96.4103 89.3967 90.777 82.55C85.2303 75.7033 83.2803 67.2533 84.927 57.2C86.4003 47.7533 90.8203 39.91 98.187 33.67ZM103.387 52.26H136.407C136.32 47.84 134.977 44.59 132.377 42.51C129.864 40.3433 126.614 39.26 122.627 39.26C118.294 39.26 114.437 40.3867 111.057 42.64C107.764 44.8933 105.207 48.1 103.387 52.26ZM173.47 33.67C180.837 27.3433 189.33 24.18 198.95 24.18C208.57 24.18 216.153 27.5167 221.7 34.19C227.247 40.7767 229.11 48.88 227.29 58.5C227.117 60.4067 226.51 62.7033 225.47 65.39H176.33C176.677 69.55 178.28 72.6267 181.14 74.62C184 76.6133 187.597 77.61 191.93 77.61C198.43 77.61 203.76 75.4 207.92 70.98L219.75 80.47C212.47 88.7033 202.763 92.82 190.63 92.82C179.883 92.82 171.693 89.3967 166.06 82.55C160.513 75.7033 158.563 67.2533 160.21 57.2C161.683 47.7533 166.103 39.91 173.47 33.67ZM178.67 52.26H211.69C211.603 47.84 210.26 44.59 207.66 42.51C205.147 40.3433 201.897 39.26 197.91 39.26C193.577 39.26 189.72 40.3867 186.34 42.64C183.047 44.8933 180.49 48.1 178.67 52.26ZM248.753 33.67C256.12 27.3433 264.613 24.18 274.233 24.18C283.853 24.18 291.437 27.5167 296.983 34.19C302.53 40.7767 304.393 48.88 302.573 58.5C302.4 60.4067 301.793 62.7033 300.753 65.39H251.613C251.96 69.55 253.563 72.6267 256.423 74.62C259.283 76.6133 262.88 77.61 267.213 77.61C273.713 77.61 279.043 75.4 283.203 70.98L295.033 80.47C287.753 88.7033 278.047 92.82 265.913 92.82C255.167 92.82 246.977 89.3967 241.343 82.55C235.797 75.7033 233.847 67.2533 235.493 57.2C236.967 47.7533 241.387 39.91 248.753 33.67ZM253.953 52.26H286.973C286.887 47.84 285.543 44.59 282.943 42.51C280.43 40.3433 277.18 39.26 273.193 39.26C268.86 39.26 265.003 40.3867 261.623 42.64C258.33 44.8933 255.773 48.1 253.953 52.26Z" fill="#3BA4F3"/>
</svg>
