<svg width="269" height="136" viewBox="0 0 269 136" fill="none" xmlns="http://www.w3.org/2000/svg">
<path fill-rule="evenodd" clip-rule="evenodd" d="M22.0831 31.2302V31.2301L25.3322 5.27466V5.10277C25.3322 3.34937 24.4785 1.85016 22.9437 0.960156C21.6399 0.204162 20.044 0 18.5249 0C16.9094 0 15.249 0.279987 13.8806 1.18681C12.3914 2.17367 11.5979 3.66808 11.4024 5.32852L11.4011 5.33954L0 97.7816V97.9511C0 99.2713 0.365972 100.541 1.16014 101.648C1.93504 102.728 3.00428 103.497 4.1753 104.041C6.44536 105.096 9.50532 105.494 13.0567 105.494C20.1884 105.494 26.528 104.378 32.0065 102.055L32.0224 102.048L32.0381 102.041C37.4044 99.6881 41.7906 96.6124 45.089 92.7598L45.0965 92.751L45.104 92.7421C51.5912 85.0354 54.9051 76.3917 54.9051 66.8907C54.9051 60.1918 53.1726 54.3671 49.5532 49.5919C45.876 44.6387 40.7109 42.1533 34.3715 42.1533C30.7936 42.1533 28.1801 42.4248 24.6396 43.9707C22.7797 44.7827 20.4848 46.3545 20.1593 46.5976L22.0831 31.2302ZM16.0491 80.539L16.0489 80.5408L14.5094 93.0535C14.9806 93.0643 15.5001 93.0702 16.0698 93.0702C21.4526 93.0702 25.8845 91.7247 29.5091 89.1527C33.4 86.3701 36.0538 83.1634 37.6101 79.5535L37.6183 79.5344L37.6269 79.5155C39.3334 75.7155 40.1744 71.8473 40.1744 67.8891C40.1744 63.8889 39.2403 60.781 37.554 58.3863L37.5314 58.3541L37.5097 58.3214C35.9757 56.0059 34.1042 55.0212 31.6932 55.0212C27.779 55.0212 24.5756 56.765 21.947 60.7556C19.2205 64.8948 17.1814 71.3911 16.0491 80.539Z" fill="white"/>
<path fill-rule="evenodd" clip-rule="evenodd" d="M254.272 86.4797L255.437 89.1664C258.652 86.3706 261.306 83.094 263.392 79.3504C267.136 72.9284 269 65.872 269 58.2378C269 51.2044 267.168 45.4015 263.06 41.3121C259.183 37.3781 254.374 35.3862 248.801 35.3862C243.317 35.3862 238.473 37.1141 234.293 40.4177V40.3781C234.293 39.0274 233.839 37.5742 232.55 36.5489C231.379 35.6182 229.941 35.3862 228.714 35.3862C226.791 35.3862 224.939 35.5589 223.542 36.1891L223.495 36.2107L223.448 36.234C221.676 37.1151 220.835 38.7693 220.51 40.3889L220.489 40.4907L209.296 130.838V131.008C209.296 132.437 209.826 133.905 211.179 134.901C212.375 135.781 213.832 136 215.099 136C216.96 136 218.766 135.755 220.238 134.993C221.869 134.148 222.986 132.707 223.223 130.807L227.586 98.6853C233.053 98.4955 238.082 97.6588 242.652 96.1445L242.67 96.1385L242.688 96.1323C247.835 94.3495 252.121 92.0506 255.437 89.167L254.27 86.4801L254.272 86.4797ZM249.426 75.3081C252.329 70.9588 254.381 65.1999 254.381 59.3471C254.381 55.8722 253.562 53.1641 252.09 51.0567L252.089 51.0559C250.807 49.2199 248.993 48.2541 246.234 48.2541C243.415 48.2541 240.979 49.1101 238.87 50.9698C237.948 51.7825 237.09 52.7867 236.289 53.995C233.553 58.1238 231.54 64.6086 230.481 73.7523L229.027 86.3015C236.23 86.228 242.15 83.6212 246.975 78.4309C247.835 77.5042 248.66 76.4554 249.426 75.3086V75.3081Z" fill="white"/>
<path fill-rule="evenodd" clip-rule="evenodd" d="M90.2867 85.1233L90.2556 85.137C88.472 85.92 86.653 86.303 84.7767 86.303C80.4907 86.303 77.5944 85.0106 75.6381 82.7401C73.9728 80.7477 72.8675 77.9863 72.5127 74.2652C76.7313 74.0962 80.6935 73.5539 84.3884 72.6261C88.6747 71.5498 92.6015 69.9546 96.1517 67.8217L96.1593 67.8171C103.619 63.3035 107.765 57.1777 107.765 49.4743C107.765 45.1069 106.147 41.4594 102.754 38.9436C99.556 36.4994 95.5713 35.3862 91.026 35.3862C83.3916 35.3862 76.157 38.3726 69.371 44.02L69.3607 44.0286L69.3506 44.0372C65.9255 46.9436 63.1705 50.8167 61.0292 55.5468C58.8417 60.3791 57.7705 65.6907 57.7705 71.4384C57.7705 79.7371 59.9031 86.5651 64.5446 91.5208L64.5615 91.5388L64.5788 91.5565C69.3466 96.4682 76.0832 98.7272 84.3303 98.7272C88.4793 98.7272 92.6585 97.6316 96.8397 95.5549C98.8858 94.5566 100.588 93.5577 101.819 92.5413C102.911 91.6401 104.306 90.1814 104.306 88.1888C104.306 86.5665 103.866 85.0126 103.085 83.5561L103.085 83.5559C102.293 82.0799 100.846 80.4237 98.5029 80.4237H97.5584L94.871 82.4665L94.8321 82.4984C93.824 83.3237 92.3523 84.203 90.3311 85.1036C90.3163 85.1103 90.3015 85.1168 90.2867 85.1233ZM79.0818 61.3105C82.0236 60.6737 84.7633 59.7094 87.3096 58.4265L87.3163 58.423L87.3231 58.4197C92.3903 55.9012 94.0391 53.2099 94.0391 50.5836C94.0391 49.3739 93.6834 48.8431 93.284 48.5206L93.2098 48.4606L93.1399 48.3958C92.6482 47.9396 91.8953 47.5885 90.5796 47.5885C87.4633 47.5885 83.9203 49.0194 79.9024 52.4622L79.892 52.4712L79.8814 52.4802C78.6325 53.5289 77.5354 54.7006 76.5922 56.0021C75.3005 57.7849 74.298 59.8113 73.5911 62.0994C75.4947 61.9546 77.3243 61.691 79.0818 61.3105Z" fill="#3BA4F3"/>
<path fill-rule="evenodd" clip-rule="evenodd" d="M120.809 44.02C127.595 38.3726 134.83 35.3862 142.464 35.3862C147.01 35.3862 150.994 36.4993 154.191 38.9436C157.587 41.4596 159.203 45.1073 159.203 49.4743C159.203 57.1776 155.058 63.3034 147.597 67.8173L147.593 67.8193L147.59 67.8216C140.98 71.7933 133.064 73.9002 123.951 74.2652C124.306 77.9863 125.411 80.7477 127.077 82.7401C129.033 85.0106 131.929 86.303 136.215 86.303C138.119 86.303 139.961 85.9092 141.769 85.1039V85.1035C143.792 84.2027 145.262 83.3236 146.269 82.499L146.308 82.4668L148.996 80.4237H149.941C152.283 80.4237 153.73 82.0772 154.522 83.5552L154.523 83.5556C155.306 85.0133 155.744 86.5675 155.744 88.1888C155.744 90.1813 154.35 91.6399 153.258 92.5412C152.026 93.5577 150.324 94.5566 148.278 95.5549C144.097 97.6316 139.918 98.7272 135.769 98.7272C127.522 98.7272 120.785 96.4682 116.017 91.5565L116 91.5388L115.983 91.5208C111.342 86.5651 109.209 79.7371 109.209 71.4384C109.209 65.6907 110.28 60.3791 112.468 55.5468C114.609 50.8167 117.364 46.9436 120.789 44.0372L120.799 44.0286L120.809 44.02ZM131.341 52.4622C135.359 49.0192 138.901 47.5885 142.018 47.5885C143.334 47.5885 144.086 47.9396 144.577 48.3958L144.648 48.461L144.722 48.5213C145.121 48.8431 145.477 49.3728 145.477 50.5836C145.477 53.21 143.828 55.9013 138.761 58.4196L138.754 58.423L138.747 58.4265C134.681 60.4758 130.12 61.7122 125.03 62.0994C126.252 58.141 128.36 54.9655 131.32 52.4802L131.33 52.4712L131.341 52.4622Z" fill="#3BA4F3"/>
<path fill-rule="evenodd" clip-rule="evenodd" d="M193.903 35.3862C186.27 35.3862 179.034 38.3726 172.248 44.0199L172.238 44.0286L172.227 44.0375C168.804 46.9436 166.047 50.8164 163.906 55.5468C161.719 60.3791 160.647 65.6907 160.647 71.4384C160.647 79.7371 162.78 86.5651 167.421 91.5208L167.438 91.5389L167.456 91.5568C172.224 96.4682 178.962 98.7272 187.207 98.7272C191.357 98.7272 195.536 97.6316 199.717 95.5549C201.763 94.5566 203.465 93.5577 204.697 92.5412C205.789 91.6399 207.183 90.1813 207.183 88.1888C207.183 86.5675 206.745 85.0133 205.962 83.5556L205.961 83.5552C205.169 82.0772 203.722 80.4237 201.38 80.4237H200.436L197.747 82.4668L197.708 82.499C196.701 83.3236 195.231 84.2027 193.208 85.1035V85.1039C191.402 85.9092 189.558 86.303 187.654 86.303C183.368 86.303 180.472 85.0108 178.515 82.7401C176.85 80.7475 175.745 77.9859 175.389 74.2652C184.502 73.9002 192.419 71.7933 199.029 67.8216L199.036 67.8173C206.497 63.3034 210.642 57.1776 210.642 49.4743C210.642 45.1073 209.026 41.4596 205.63 38.9436C202.433 36.4993 198.449 35.3862 193.903 35.3862ZM193.457 47.5885C190.34 47.5885 186.799 49.0192 182.78 52.4625L182.769 52.4714L182.759 52.4801C179.8 54.9653 177.691 58.1409 176.469 62.0994C181.559 61.7122 186.119 60.4757 190.187 58.4265L190.194 58.423L190.201 58.4196C195.267 55.9013 196.916 53.21 196.916 50.5836C196.916 49.3728 196.56 48.8431 196.161 48.5213L196.087 48.461L196.016 48.3958C195.525 47.9396 194.773 47.5885 193.457 47.5885Z" fill="#3BA4F3"/>
</svg>
